# xmcd
#
# Track frame offsets: 
#        150
#        21852
#        36410
#        50927
#        73973
#        91478
#        111220
#        127932
#        149087
#        167082
#        182350
#        196618
#
# Disc length: 2956 seconds
#
# Revision: 0
# Processed by: cddbd v1.5.2PL0 Copyright (c) Steve Scherf et al.
# Submitted via: ExactAudioCopy v1.0b1
#
DISCID=b00b8a0c
DTITLE=The Mooseknuckle Bros - Every Day Is Better With Music
DYEAR=2013
DGENRE=Blues Rock
TTITLE0=Every Day Is Better With Music
TTITLE1=Apple Don't Fall Far From The Tree
TTITLE2=Will You Be My Woman
TTITLE3=Bottle Is My Crutch
TTITLE4=Tomorrow Never Comes
TTITLE5=Across The River
TTITLE6=I'm So Happy I've Got The Blues
TTITLE7=Don't Let The Good Things Bring You Down
TTITLE8=Everything Erodes Away
TTITLE9=Born To Sing The Blues
TTITLE10=Monday Morning Blues
TTITLE11=Happy Hour
EXTD=
EXTT0=
EXTT1=
EXTT2=
EXTT3=
EXTT4=
EXTT5=
EXTT6=
EXTT7=
EXTT8=
EXTT9=
EXTT10=
EXTT11=
PLAYORDER=
